M48
; DRILL file {KiCad 8.0.2} date 2024-05-10T22:18:34+0300
; FORMAT={-:-/ absolute / inch / decimal}
; #@! TF.CreationDate,2024-05-10T22:18:34+03:00
; #@! TF.GenerationSoftware,Kicad,Pcbnew,8.0.2
; #@! TF.FileFunction,Plated,1,2,PTH
FMAT,2
INCH
; #@! TA.AperFunction,Plated,PTH,ViaDrill
T1C0.0118
; #@! TA.AperFunction,Plated,PTH,ComponentDrill
T2C0.0402
; #@! TA.AperFunction,Plated,PTH,ComponentDrill
T3C0.0472
; #@! TA.AperFunction,Plated,PTH,ComponentDrill
T4C0.0512
; #@! TA.AperFunction,Plated,PTH,ComponentDrill
T5C0.0984
%
G90
G05
T1
X5.4528Y-3.4449
X6.9685Y-1.9685
X7.4213Y-2.2441
X9.5079Y-3.3661
X9.5276Y-2.9724
X9.7441Y-3.1693
X9.8819Y-3.1693
T2
X5.2783Y-3.3272
X5.2783Y-3.4272
X5.2783Y-3.5272
X5.2783Y-3.6272
X5.2783Y-3.7272
X5.2783Y-3.8272
X5.2783Y-3.9272
X5.2783Y-4.0272
X5.2783Y-4.1272
X5.2783Y-4.2272
X5.2783Y-4.3272
X5.2783Y-4.4272
X5.2783Y-4.5272
X5.2783Y-4.6272
X5.2783Y-4.7272
X6.2783Y-3.3272
X6.2783Y-3.4272
X6.2783Y-3.5272
X6.2783Y-3.6272
X6.2783Y-3.7272
X6.2783Y-3.8272
X6.2783Y-3.9272
X6.2783Y-4.0272
X6.2783Y-4.1272
X6.2783Y-4.2272
X6.2783Y-4.3272
X6.2783Y-4.4272
X6.2783Y-4.5272
X6.2783Y-4.6272
X6.2783Y-4.7272
T3
X9.7441Y-2.9724
X9.7441Y-3.0724
X9.7441Y-3.1724
X9.7441Y-3.2724
X9.7441Y-3.3724
X9.7441Y-3.4724
X9.7441Y-3.5724
X9.7441Y-3.6724
X9.7441Y-3.7724
X9.7441Y-3.8724
X9.7441Y-3.9724
X9.7441Y-4.0724
X9.7441Y-4.1724
X9.7441Y-4.2724
X9.7441Y-4.3724
X9.7441Y-4.4724
T4
X2.7953Y-3.0512
X2.7953Y-3.248
X2.7953Y-3.4449
X2.9134Y-5.9252
X2.9134Y-6.122
X3.563Y-2.0472
X3.7598Y-2.0472
X3.9567Y-2.0472
X6.9712Y-2.109
X7.168Y-2.109
X7.3649Y-2.109
X7.6575Y-6.1614
X7.8543Y-6.1614
X8.0512Y-6.1614
X9.1732Y-6.1811
X9.3701Y-6.1811
X9.5669Y-6.1811
T5
X8.5236Y-2.7559
X8.5236Y-5.7086
X9.7441Y-2.7559
X9.7441Y-5.7086
M30
